M48
INCH
T01C0.0400
T02C0.0300
T03C0.0380
T04C0.0295
%
T01
X-030862Y+013250
X-031862Y+013250
X-032862Y+013250
X-033862Y+013250
X-034862Y+013250
X-035862Y+013250
X-036862Y+013250
X-036862Y+012250
X-035862Y+012250
X-034862Y+012250
X-033862Y+012250
X-032862Y+012250
X-031862Y+012250
X-030862Y+012250
X-023742Y+013279
X-024742Y+013279
X-025742Y+013279
X-026742Y+013279
X-027742Y+013279
X-028742Y+013279
X-029742Y+013279
X-029742Y+012279
X-028742Y+012279
X-027742Y+012279
X-026742Y+012279
X-025742Y+012279
X-024742Y+012279
X-023742Y+012279
X-030830Y+024481
X-031830Y+024481
X-032830Y+024481
X-033830Y+024481
X-034830Y+024481
X-035830Y+024481
X-036830Y+024481
X-036830Y+023481
X-035830Y+023481
X-034830Y+023481
X-033830Y+023481
X-032830Y+023481
X-031830Y+023481
X-030830Y+023481
X-023710Y+024500
X-024710Y+024500
X-025710Y+024500
X-026710Y+024500
X-027710Y+024500
X-028710Y+024500
X-029710Y+024500
X-029710Y+023500
X-028710Y+023500
X-027710Y+023500
X-026710Y+023500
X-025710Y+023500
X-024710Y+023500
X-023710Y+023500
X-017040Y+006880
X-017040Y+007880
X-017040Y+008880
X-010420Y+003230
X-014420Y+003230
T02
X-039769Y+014274
X-039769Y+015274
X-039769Y+016274
X-039769Y+017274
X-039769Y+018274
X-039769Y+019274
X-039769Y+020274
X-039769Y+021274
X-039769Y+022274
X-042769Y+022274
X-042769Y+021274
X-042769Y+020274
X-042769Y+019274
X-042769Y+018274
X-042769Y+017274
X-042769Y+016274
X-042769Y+015274
X-042769Y+014274
X-020329Y+022229
X-020329Y+021229
X-020329Y+020229
X-020329Y+019229
X-020329Y+018229
X-020329Y+017229
X-020329Y+016229
X-020329Y+015229
X-020329Y+014229
X-017329Y+014229
X-017329Y+015229
X-017329Y+016229
X-017329Y+017229
X-017329Y+018229
X-017329Y+019229
X-017329Y+020229
X-017329Y+021229
X-017329Y+022229
X-020429Y+032921
X-020429Y+031921
X-020429Y+030921
X-020429Y+029921
X-020429Y+028921
X-020429Y+027921
X-020429Y+026921
X-020429Y+025921
X-020429Y+024921
X-017429Y+024921
X-017429Y+025921
X-017429Y+026921
X-017429Y+027921
X-017429Y+028921
X-017429Y+029921
X-017429Y+030921
X-017429Y+031921
X-017429Y+032921
X-039938Y+003512
X-039938Y+004512
X-039938Y+005512
X-039938Y+006512
X-039938Y+007512
X-039938Y+008512
X-039938Y+009512
X-039938Y+010512
X-039938Y+011512
X-042938Y+011512
X-042938Y+010512
X-042938Y+009512
X-042938Y+008512
X-042938Y+007512
X-042938Y+006512
X-042938Y+005512
X-042938Y+004512
X-042938Y+003512
T03
X-045584Y+014509
X-045584Y+015509
X-045584Y+016509
X-045584Y+017509
X-045584Y+018509
X-045584Y+019509
X-045584Y+020509
X-045584Y+021509
X-015880Y+022180
X-015880Y+021180
X-015880Y+020180
X-015880Y+019180
X-015880Y+018180
X-015880Y+017180
X-015880Y+016180
X-015880Y+015180
X-044623Y+003497
X-044623Y+004497
X-044623Y+005497
X-044623Y+006497
X-044623Y+007497
X-044623Y+008497
X-044623Y+009497
X-044623Y+010497
X-015991Y+032910
X-015991Y+031910
X-015991Y+030910
X-015991Y+029910
X-015991Y+028910
X-015991Y+027910
X-015991Y+026910
X-015991Y+025910
T04
X-014340Y+008963
X-014340Y+008176
X-014340Y+005247
X-014340Y+006232
M30
